<svg xmlns="http://www.w3.org/2000/svg" version="1.1" xmlns:xlink="http://www.w3.org/1999/xlink" xmlns:svgjs="http://svgjs.dev/svgjs" width="1500" height="465" viewBox="0 0 1500 465"><g transform="matrix(1,0,0,1,-0.9090909090909918,-0.5219544352699756)"><svg viewBox="0 0 396 123" data-background-color="#ffffff" preserveAspectRatio="xMidYMid meet" height="465" width="1500" xmlns="http://www.w3.org/2000/svg" xmlns:xlink="http://www.w3.org/1999/xlink"><g id="tight-bounds" transform="matrix(1,0,0,1,0.2400000000000091,0.13806536674883318)"><svg viewBox="0 0 395.52 122.72386926650235" height="122.72386926650235" width="395.52"><g><svg viewBox="0 0 397.4975999999999 123.33748861283485" height="122.72386926650235" width="395.52"><g><rect width="397.4975999999999" height="3.777664376450774" x="0" y="51.77896247390212" fill="#b81d33" opacity="1" stroke-width="0" stroke="transparent" fill-opacity="1" class="rect-yte-0" data-fill-palette-color="secondary" rx="1%" id="yte-0" data-palette-color="#b81d33"></rect></g><g transform="matrix(1,0,0,1,0.9887999999999693,0)"><svg viewBox="0 0 395.52 41.88978871355978" height="41.88978871355978" width="395.52"><g id="textblocktransform"><svg viewBox="0 0 395.52 41.88978871355978" height="41.88978871355978" width="395.52" id="textblock"><g><svg viewBox="0 0 395.52 41.88978871355978" height="41.88978871355978" width="395.52"><g transform="matrix(1,0,0,1,0,0)"><svg width="395.52" viewBox="0.9 -38.9 373.87 39.6" height="41.88978871355978" data-palette-color="#ff851b"><path d="M49.2-8.2L51.4-8.2 51.4 0 35.6 0 35.6-8.2 37.7-8.2 37.7-16.4Q37.7-18.05 37-18.82 36.3-19.6 34.9-19.6L34.9-19.6Q31.9-19.6 31.9-16.4L31.9-16.4 31.9-8.2 34-8.2 34 0 18.3 0 18.3-8.2 20.4-8.2 20.4-16.4Q20.4-18.05 19.7-18.82 19-19.6 17.6-19.6L17.6-19.6Q14.6-19.6 14.6-16.4L14.6-16.4 14.6-8.2 16.7-8.2 16.7 0 0.9 0 0.9-8.2 3.1-8.2 3.1-19.6 0.9-19.6 0.9-27.8 14.6-27.8 14.6-23.9Q18.2-28.5 23.6-28.5L23.6-28.5Q26.65-28.5 28.58-27.08 30.5-25.65 31.3-23.05L31.3-23.05Q33.1-25.65 35.43-27.05 37.75-28.45 40.9-28.45L40.9-28.45Q45.05-28.45 47.13-25.85 49.2-23.25 49.2-18.7L49.2-18.7 49.2-8.2ZM67.9 0.7Q60.8 0.7 56.8-3.03 52.8-6.75 52.8-13.9L52.8-13.9Q52.8-21.05 56.8-24.78 60.8-28.5 67.9-28.5L67.9-28.5Q74.95-28.5 78.07-24.83 81.2-21.15 81.2-15.7L81.2-15.7 81.2-12.1 65-12.1 65-11.8Q65-9.95 66.1-9.08 67.2-8.2 69.75-8.2L69.75-8.2Q72.8-8.2 75.55-8.65 78.3-9.1 80.35-9.8L80.35-9.8 80.35-1.8Q78.6-0.85 75.22-0.08 71.85 0.7 67.9 0.7L67.9 0.7ZM65-17.6L70.8-17.6 70.8-18.2Q70.8-19.9 70.07-20.65 69.35-21.4 67.9-21.4L67.9-21.4Q66.45-21.4 65.72-20.63 65-19.85 65-18.2L65-18.2 65-17.6ZM92.55 0.7Q87.45 0.7 84.87-3.1 82.3-6.9 82.3-13.9L82.3-13.9Q82.3-20.9 84.87-24.7 87.45-28.5 92.55-28.5L92.55-28.5Q95.1-28.5 97.07-27.25 99.05-26 100.3-24.4L100.3-24.4 100.3-30.7 97.35-30.7 97.35-38.9 111.8-38.9 111.8-8.2 114-8.2 114 0 100.3 0 100.3-3.4Q99.05-1.8 97.07-0.55 95.1 0.7 92.55 0.7L92.55 0.7ZM97.4-8.2Q98.85-8.2 99.57-8.97 100.3-9.75 100.3-11.4L100.3-11.4 100.3-16.4Q100.3-18.05 99.57-18.82 98.85-19.6 97.4-19.6L97.4-19.6Q95.95-19.6 95.22-18.82 94.5-18.05 94.5-16.4L94.5-16.4 94.5-11.4Q94.5-9.75 95.22-8.97 95.95-8.2 97.4-8.2L97.4-8.2ZM128.19-30.55L117.99-30.55 117.99-38.9 128.19-38.9 128.19-30.55ZM131.49 0L115.59 0 115.59-8.2 117.79-8.2 117.79-19.6 115.59-19.6 115.59-27.8 129.29-27.8 129.29-8.2 131.49-8.2 131.49 0ZM159.84-8.2L162.04-8.2 162.04 0 148.84 0 148.84-3.4Q147.74-1.8 145.77-0.55 143.79 0.7 140.94 0.7L140.94 0.7Q137.19 0.7 135.04-1.3 132.89-3.3 132.89-6.95L132.89-6.95Q132.89-16.4 148.94-16.65L148.94-16.65Q148.79-18.35 147.64-18.98 146.49-19.6 143.74-19.6L143.74-19.6Q141.49-19.6 138.92-19.13 136.34-18.65 134.19-17.85L134.19-17.85 134.19-27.05Q136.84-27.7 139.94-28.1 143.04-28.5 145.99-28.5L145.99-28.5Q153.44-28.5 156.64-25.8 159.84-23.1 159.84-17.45L159.84-17.45 159.84-8.2ZM148.84-11.4L148.84-11.7Q146.59-11.7 145.37-11.1 144.14-10.5 144.14-9.1L144.14-9.1Q144.14-8.25 144.67-7.73 145.19-7.2 146.14-7.2L146.14-7.2Q147.44-7.2 148.14-8.3 148.84-9.4 148.84-11.4L148.84-11.4ZM191.24-30.55L181.04-30.55 181.04-38.9 191.24-38.9 191.24-30.55ZM194.54 0L178.64 0 178.64-8.2 180.84-8.2 180.84-19.6 178.64-19.6 178.64-27.8 192.34-27.8 192.34-8.2 194.54-8.2 194.54 0ZM226.93-8.2L229.13-8.2 229.13 0 213.33 0 213.33-8.2 215.43-8.2 215.43-16.4Q215.43-18.05 214.73-18.82 214.03-19.6 212.63-19.6L212.63-19.6Q209.63-19.6 209.63-16.4L209.63-16.4 209.63-8.2 211.73-8.2 211.73 0 195.93 0 195.93-8.2 198.13-8.2 198.13-19.6 195.93-19.6 195.93-27.8 209.63-27.8 209.63-23.9Q213.23-28.5 218.63-28.5L218.63-28.5Q222.78-28.5 224.86-25.9 226.93-23.3 226.93-18.75L226.93-18.75 226.93-8.2ZM242.88 0.7Q236.58 0.7 230.73-1.3L230.73-1.3 230.73-8.7 238.83-8.7 238.83-8.2Q238.83-5.8 241.88-5.8L241.88-5.8Q244.58-5.8 244.58-7.65L244.58-7.65Q244.58-8.65 243.81-9.15 243.03-9.65 241.08-10L241.08-10 238.58-10.45Q230.73-11.85 230.73-19.35L230.73-19.35Q230.73-23.7 234.03-26.1 237.33-28.5 242.93-28.5L242.93-28.5Q249.18-28.5 253.48-26.4L253.48-26.4 253.48-19.45 245.88-19.45 245.88-19.95Q245.88-20.95 245.21-21.48 244.53-22 243.23-22L243.23-22Q240.73-22 240.73-20.4L240.73-20.4Q240.73-19.55 241.43-19.1 242.13-18.65 243.98-18.25L243.98-18.25 246.83-17.7Q251.28-16.85 253.18-14.55 255.08-12.25 255.08-8.65L255.08-8.65Q255.08-4.1 251.91-1.7 248.73 0.7 242.88 0.7L242.88 0.7ZM287.68-8.2L289.88-8.2 289.88 0 274.08 0 274.08-8.2 276.18-8.2 276.18-16.4Q276.18-18.05 275.48-18.82 274.78-19.6 273.38-19.6L273.38-19.6Q270.38-19.6 270.38-16.4L270.38-16.4 270.38-8.2 272.48-8.2 272.48 0 256.68 0 256.68-8.2 258.88-8.2 258.88-30.7 256.68-30.7 256.68-38.9 270.38-38.9 270.38-23.9Q272.23-26.2 274.38-27.35 276.53-28.5 279.38-28.5L279.38-28.5Q283.53-28.5 285.6-25.9 287.68-23.3 287.68-18.75L287.68-18.75 287.68-8.2ZM306.38 0.7Q299.28 0.7 295.28-3.03 291.28-6.75 291.28-13.9L291.28-13.9Q291.28-21.05 295.28-24.78 299.28-28.5 306.38-28.5L306.38-28.5Q313.58-28.5 317.53-24.73 321.48-20.95 321.48-13.9L321.48-13.9Q321.48-6.75 317.48-3.03 313.48 0.7 306.38 0.7L306.38 0.7ZM306.38-8.2Q307.83-8.2 308.55-8.97 309.28-9.75 309.28-11.4L309.28-11.4 309.28-16.4Q309.28-18.05 308.55-18.82 307.83-19.6 306.38-19.6L306.38-19.6Q304.93-19.6 304.2-18.82 303.48-18.05 303.48-16.4L303.48-16.4 303.48-11.4Q303.48-9.75 304.2-8.97 304.93-8.2 306.38-8.2L306.38-8.2ZM350.02-8.2L352.22-8.2 352.22 0 339.02 0 339.02-3.4Q337.92-1.8 335.95-0.55 333.97 0.7 331.12 0.7L331.12 0.7Q327.37 0.7 325.22-1.3 323.07-3.3 323.07-6.95L323.07-6.95Q323.07-16.4 339.12-16.65L339.12-16.65Q338.97-18.35 337.82-18.98 336.67-19.6 333.92-19.6L333.92-19.6Q331.67-19.6 329.1-19.13 326.52-18.65 324.37-17.85L324.37-17.85 324.37-27.05Q327.02-27.7 330.12-28.1 333.22-28.5 336.17-28.5L336.17-28.5Q343.62-28.5 346.82-25.8 350.02-23.1 350.02-17.45L350.02-17.45 350.02-8.2ZM339.02-11.4L339.02-11.7Q336.77-11.7 335.55-11.1 334.32-10.5 334.32-9.1L334.32-9.1Q334.32-8.25 334.85-7.73 335.37-7.2 336.32-7.2L336.32-7.2Q337.62-7.2 338.32-8.3 339.02-9.4 339.02-11.4L339.02-11.4ZM366.17 0.7Q360.87 0.7 358.2-1.88 355.52-4.45 355.52-10.55L355.52-10.55 355.52-19.6 353.32-19.6 353.32-27.8Q355.22-27.8 356.17-28.78 357.12-29.75 357.12-31.45L357.12-31.45 357.12-33.7 367.72-33.7 367.72-27.8 374.47-27.8 374.47-19.6 367.72-19.6 367.72-11.4Q367.72-9.75 368.45-8.97 369.17-8.2 370.62-8.2L370.62-8.2Q372.52-8.2 374.77-8.65L374.77-8.65 374.77-0.8Q373.37-0.25 371 0.23 368.62 0.7 366.17 0.7L366.17 0.7Z" opacity="1" transform="matrix(1,0,0,1,0,0)" fill="#ff851b" class="wordmark-text-0" data-fill-palette-color="primary" id="text-0"></path></svg></g></svg></g></svg></g></svg></g><g transform="matrix(1,0,0,1,161.80295599893014,65.44580061069523)"><svg viewBox="0 0 73.89168800213963 57.891688002139624" height="57.891688002139624" width="73.89168800213963"><g><svg xmlns="http://www.w3.org/2000/svg" xmlns:xlink="http://www.w3.org/1999/xlink" version="1.1" x="8.000000000000004" y="0" viewBox="6 6 88 88" enable-background="new 0 0 100 100" xml:space="preserve" height="57.891688002139624" width="57.891688002139624" class="icon-icon-0" data-fill-palette-color="accent" id="icon-0"><g fill="#fe6e63" data-fill-palette-color="accent"><path d="M50 69.693L69.693 50 50 30.307 30.307 50zM63.307 50L50 63.307 36.693 50 50 36.693z" fill="#fe6e63" data-fill-palette-color="accent"></path><rect x="43.231" y="43.231" transform="matrix(-0.7071 0.7071 -0.7071 -0.7071 120.7107 50)" width="13.539" height="13.539" fill="#fe6e63" data-fill-palette-color="accent"></rect><polygon points="94,48.133 94,6 51.866,6  " fill="#fe6e63" data-fill-palette-color="accent"></polygon><path d="M50 79.813L79.813 50 50 20.187 20.187 50zM73.427 50L50 73.427 26.573 50 50 26.573z" fill="#fe6e63" data-fill-palette-color="accent"></path><path d="M50 92.134L92.134 50 50 7.867 7.867 50zM83.547 50L50 83.547 16.454 50 50 16.454z" fill="#fe6e63" data-fill-palette-color="accent"></path><polygon points="6,51.866 6,94 48.133,94  " fill="#fe6e63" data-fill-palette-color="accent"></polygon><polygon points="48.133,6 6,6 6,48.133  " fill="#fe6e63" data-fill-palette-color="accent"></polygon><polygon points="51.866,94 94,94 94,51.866  " fill="#fe6e63" data-fill-palette-color="accent"></polygon></g></svg></g></svg></g><g><rect width="85.26983599893018" height="3.777664376450774" y="69.223464987146" x="235.69464400106978" fill="#b81d33" data-fill-palette-color="secondary"></rect><rect width="85.26983599893018" height="3.777664376450774" y="69.223464987146" x="76.53311999999997" fill="#b81d33" data-fill-palette-color="secondary"></rect></g></svg></g><defs></defs></svg><rect width="395.52" height="122.72386926650235" fill="none" stroke="none" visibility="hidden"></rect></g></svg></g></svg>